<?xml version="1.0" encoding="utf-8"?>
<!-- Generator: Adobe Illustrator 27.0.0, SVG Export Plug-In . SVG Version: 6.00 Build 0)  -->
<svg version="1.1" id="图层_1" xmlns="http://www.w3.org/2000/svg" xmlns:xlink="http://www.w3.org/1999/xlink" x="0px" y="0px"
	 viewBox="0 0 252.8 189.7" style="enable-background:new 0 0 252.8 189.7;" xml:space="preserve">
<style type="text/css">
	.st0{fill:#2AE3FC;}
</style>
<g id="图层_1-2">
	<path class="st0" d="M169.6,179.1L169.6,179.1c-5.9,5.9-15.4,5.9-21.2,0l-144-144c-5.9-5.9-5.9-15.4,0-21.2c0,0,0,0,0,0l0,0
		c5.9-5.9,15.4-5.9,21.2,0c0,0,0,0,0,0l144,144C175.5,163.8,175.5,173.3,169.6,179.1z"/>
	<path class="st0" d="M148.7,179.1L148.7,179.1c-5.9-5.9-5.9-15.4,0-21.2l78.5-78.5c5.9-5.9,15.4-5.9,21.2,0l0,0
		c5.9,5.9,5.9,15.4,0,21.2c0,0,0,0,0,0l-78.5,78.5C164,185,154.5,185,148.7,179.1z"/>
	<path class="st0" d="M99.7,45.1L99.7,45.1c-5.9-5.9-5.9-15.4,0-21.2l19.5-19.5c5.9-5.9,15.4-5.9,21.2,0l0,0
		c5.9,5.9,5.9,15.4,0,21.2c0,0,0,0,0,0l-19.5,19.5C115,51,105.5,51,99.7,45.1z"/>
	<path class="st0" d="M145.1,88.6L145.1,88.6c-5.5-5.4-5.6-14.3-0.2-19.8l20-20.4c5.8-5.9,15.3-6,21.2-0.2l0,0
		c5.9,5.8,6,15.3,0.2,21.2c0,0,0,0,0,0l-18.7,19C161.5,94.7,151.4,94.8,145.1,88.6z"/>
</g>
</svg>
