<?xml version="1.0" encoding="utf-8"?>
<!-- Generator: Adobe Illustrator 23.0.0, SVG Export Plug-In . SVG Version: 6.00 Build 0)  -->
<svg version="1.1" xmlns="http://www.w3.org/2000/svg" xmlns:xlink="http://www.w3.org/1999/xlink" x="0px" y="0px"
	 viewBox="0 0 500 500" style="enable-background:new 0 0 500 500;" xml:space="preserve">
<style type="text/css">
	.st0{display:none;}
	.st1{display:inline;fill:none;}
	.st2{display:inline;}
	.st3{font-family:'Arial-BoldMT';}
	.st4{font-size:200px;}
	.st5{font-family:'AdobeSongStd-Light-GBpc-EUC-H';}
	.st6{font-size:48px;}
	.st7{fill:url(#SVGID_1_);}
	.st8{fill:url(#SVGID_2_);}
	.st9{fill:url(#SVGID_3_);}
	.st10{fill:#494949;}
	.st11{font-family:'ArialMT';}
	.st12{font-size:60px;}
	.st13{fill:none;}
</style>
<g id="图层_1" class="st0">
	<rect x="113.62" y="183.18" class="st1" width="1.69" height="2.82"/>
	<text transform="matrix(1 0 0 1 109.5742 303.6807)" class="st2 st3 st4">M</text>
</g>
<g id="图层_1_x5F_复制" class="st0">
	<g class="st2">
		<ellipse cx="351.12" cy="260.81" rx="28.14" ry="29.59"/>
		<path d="M74.06,94.49c2.77-5.31,6.36-10.23,10.77-14.76c4.41-4.53,9.41-8.49,15-11.87c5.59-3.38,11.68-6.04,18.27-7.97
			c6.58-1.93,13.44-2.89,20.57-2.89c7.62,0,14.83,0.81,21.61,2.42c6.78,1.62,13,4.22,18.64,7.81c5.64,3.59,10.67,8.28,15.08,14.06
			c4.41,5.78,8.04,12.83,10.92,21.16h1.19c3.86-6.97,8.29-13.28,13.29-18.9c5-5.62,10.5-10.41,16.49-14.37
			c5.99-3.96,12.43-6.97,19.31-9.06c6.88-2.08,14.13-3.12,21.76-3.12c10.89,0,20.89,1.67,30,5c9.11,3.33,16.93,8.85,23.47,16.56
			c6.54,7.71,11.63,17.94,15.3,30.69c3.66,12.76,5.5,28.51,5.5,47.25v102.71v30.68l-28.52-30.68V158.37
			c0-14.06-1.07-25.9-3.19-35.53c-2.13-9.63-5.32-17.44-9.58-23.43c-4.26-5.99-9.61-10.28-16.04-12.89
			c-6.44-2.6-14.01-3.9-22.73-3.9c-11.59,0-21.14,2.26-28.67,6.79c-7.53,4.53-13.49,10.57-17.9,18.12
			c-4.41,7.55-7.48,16.3-9.21,26.24c-1.73,9.95-2.6,20.28-2.6,31.01v125.11h-28.52V158.37c0-14.06-1.07-25.9-3.19-35.53
			c-2.13-9.63-5.32-17.44-9.58-23.43c-4.26-5.99-9.61-10.28-16.04-12.89c-6.44-2.6-13.96-3.9-22.58-3.9
			c-11.59,0-21.14,2.26-28.67,6.79c-7.53,4.53-13.52,10.57-17.97,18.12c-4.46,7.55-7.55,16.3-9.28,26.24
			c-1.73,9.95-2.6,20.28-2.6,31.01v125.11H45.83c0,0-0.33-191.46,0-195.44C59.85,79.27,74.06,94.49,74.06,94.49z"/>
	</g>
	<path class="st2" d="M319.94,292"/>
	<ellipse class="st2" cx="415.76" cy="272.81" rx="16.73" ry="17.59"/>
	<ellipse class="st2" cx="459.87" cy="282.4" rx="9.13" ry="9.6"/>
	<text transform="matrix(1 0 0 1 106.4683 420.8936)" class="st2 st5 st6">mine wordpress</text>
</g>
<g id="图层_1_x5F_复制_2">
	<g>
		<linearGradient id="SVGID_1_" gradientUnits="userSpaceOnUse" x1="38.3448" y1="208.0123" x2="371.9161" y2="208.0123">
			<stop  offset="1.198083e-07" style="stop-color:#209BF8"/>
			<stop  offset="0.8593" style="stop-color:#9CCDEB"/>
			<stop  offset="1" style="stop-color:#F2F35A"/>
		</linearGradient>
		<path class="st7" d="M343.88,265.54v-74.73c0-18.74-1.83-34.49-5.5-47.25c-3.66-12.75-8.76-22.99-15.3-30.69
			c-6.54-7.71-14.36-13.22-23.47-16.56c-9.11-3.33-19.11-5-30-5c-7.63,0-14.88,1.04-21.76,3.12c-6.88,2.08-13.32,5.1-19.31,9.06
			c-5.99,3.96-11.49,8.75-16.49,14.37c-5,5.62-9.43,11.92-13.29,18.9h-1.19c-2.87-8.33-6.51-15.39-10.92-21.16
			c-4.41-5.78-9.43-10.47-15.08-14.06c-5.64-3.59-11.86-6.19-18.64-7.81c-6.78-1.61-13.99-2.42-21.61-2.42
			c-7.13,0-13.99,0.96-20.57,2.89c-6.59,1.93-12.68,4.58-18.27,7.97c-5.6,3.38-10.6,7.34-15,11.87c-4.41,4.53-8,9.45-10.77,14.76
			c0,0-14.21-15.22-28.22-0.04c-0.33,3.98,0,195.44,0,195.44h28.52V199.09c0-10.72,0.87-21.06,2.6-31.01
			c1.73-9.94,4.83-18.69,9.28-26.24c4.46-7.55,10.45-13.59,17.97-18.12c7.52-4.53,17.08-6.79,28.67-6.79c8.62,0,16.14,1.3,22.58,3.9
			c6.44,2.6,11.78,6.9,16.04,12.89c4.26,5.99,7.45,13.8,9.58,23.43c2.13,9.63,3.19,21.48,3.19,35.53V324.2h28.52V199.09
			c0-10.72,0.87-21.06,2.6-31.01c1.73-9.94,4.8-18.69,9.21-26.24c4.41-7.55,10.37-13.59,17.9-18.12c7.52-4.53,17.08-6.79,28.67-6.79
			c8.71,0,16.29,1.3,22.73,3.9c6.44,2.6,11.78,6.9,16.04,12.89c4.26,5.99,7.45,13.8,9.58,23.43c2.13,9.63,3.19,21.48,3.19,35.53
			v100.84l0.31,0.33c-0.02,0.42-0.03,0.84-0.03,1.27c0,16.34,12.6,29.59,28.14,29.59s28.14-13.25,28.14-29.59
			C371.92,278.82,359.37,265.59,343.88,265.54z"/>
		<linearGradient id="SVGID_2_" gradientUnits="userSpaceOnUse" x1="391.6891" y1="307.1185" x2="425.1512" y2="307.1185">
			<stop  offset="1.198083e-07" style="stop-color:#F9D020"/>
			<stop  offset="1" style="stop-color:#FCEB69"/>
		</linearGradient>
		<ellipse class="st8" cx="408.42" cy="307.12" rx="16.73" ry="17.59"/>
		<linearGradient id="SVGID_3_" gradientUnits="userSpaceOnUse" x1="443.4032" y1="316.7153" x2="461.6552" y2="316.7153">
			<stop  offset="0" style="stop-color:#FCEB69"/>
			<stop  offset="1" style="stop-color:#F9D020"/>
		</linearGradient>
		<ellipse class="st9" cx="452.53" cy="316.72" rx="9.13" ry="9.6"/>
	</g>
	<text transform="matrix(1 0 0 1 39.9368 389.2056)" class="st10 st11 st12">mine wordpress</text>
	<polygon class="st13" points="349.57,372.55 150.43,372.55 150.43,372.55 349.57,372.55 	"/>
</g>
</svg>
