<?xml version="1.0" encoding="UTF-8"?>
<svg id="_图层_2" data-name="图层 2" xmlns="http://www.w3.org/2000/svg" width="129" height="54" xmlns:xlink="http://www.w3.org/1999/xlink" viewBox="0 0 129 54">
  <defs>
    <style>
      .cls-1 {
        fill: url(#_未命名的渐变_40-4);
      }

      .cls-2 {
        fill: url(#_未命名的渐变_40-2);
      }

      .cls-3 {
        fill: url(#_未命名的渐变_40);
      }

      .cls-4 {
        fill: url(#_未命名的渐变_40-5);
      }

      .cls-5 {
        fill: none;
      }

      .cls-6 {
        fill: url(#_未命名的渐变_40-3);
      }
    </style>
    <linearGradient id="_未命名的渐变_40" data-name="未命名的渐变 40" x1="18.2" y1="18.55" x2="33.9" y2="34.25" gradientUnits="userSpaceOnUse">
      <stop offset="0" stop-color="#75f8d2"/>
      <stop offset=".49" stop-color="#6096db"/>
      <stop offset=".5" stop-color="#629dda"/>
      <stop offset=".99" stop-color="#2ae3fc"/>
    </linearGradient>
    <linearGradient id="_未命名的渐变_40-2" data-name="未命名的渐变 40" x1="35.43" y1="20.1" x2="49.96" y2="34.63" xlink:href="#_未命名的渐变_40"/>
    <linearGradient id="_未命名的渐变_40-3" data-name="未命名的渐变 40" x1="50.83" y1="22.45" x2="67.29" y2="38.9" xlink:href="#_未命名的渐变_40"/>
    <linearGradient id="_未命名的渐变_40-4" data-name="未命名的渐变 40" x1="73.34" y1="20.45" x2="87.25" y2="34.36" xlink:href="#_未命名的渐变_40"/>
    <linearGradient id="_未命名的渐变_40-5" data-name="未命名的渐变 40" x1="92.43" y1="16.2" x2="107.17" y2="30.94" xlink:href="#_未命名的渐变_40"/>
  </defs>
  <g id="_图层_1-2" data-name="图层 1">
    <g>
      <g>
        <path class="cls-3" d="M20.75,30.82c.1-2.7,.15-5.42,.15-8.14,0-3.84-.09-6.02-.26-6.55,.41,.02,.77,.09,1.07,.21,.3,.12,.69,.3,1.16,.56,.49,.27,.91,.47,1.26,.59,.67-.51,1.39-.9,2.16-1.18,.77-.27,1.56-.41,2.37-.41,1.14,0,2.19,.28,3.16,.85,.97,.57,1.77,1.42,2.39,2.56,.12,.37,.18,.76,.18,1.18,0,.84-.24,1.67-.71,2.47-.47,.8-1.04,1.46-1.7,1.97-.67,.51-1.26,.77-1.79,.79,1.59,.39,2.79,1.07,3.61,2.03,.82,.96,1.23,2.04,1.23,3.23,0,1-.28,1.94-.85,2.84-.57,.89-1.4,1.61-2.48,2.16-1.09,.55-2.37,.82-3.83,.82-1.22,0-2.43-.18-3.64-.53-.02,0-.07,.22-.15,.66-.08,.44-.19,.7-.32,.78l-.94-.32c-.12-.04-.36-.12-.73-.25-.37-.13-.7-.25-.98-.37-.28-.12-.53-.24-.75-.38,.18-1,.31-2.85,.41-5.55Zm1.63,3.45c.03-.17,.03-.28,.01-.34v-.12c-.08,.06-.12,.1-.12,.12-.1,.1-.16,.2-.18,.29-.02,.1-.03,.25-.03,.47h.24c.02-.12,.04-.26,.07-.43Zm1.6-2.6c-.04,.98-.06,1.6-.06,1.85,0,.67,.05,1.03,.15,1.09l.71,.03c1.35,0,2.52-.2,3.5-.6,.98-.4,1.72-.92,2.22-1.56,.5-.64,.75-1.29,.75-1.95,0-.8-.36-1.48-1.07-2.04-.72-.56-1.73-.84-3.04-.84-.92,0-1.95,.16-3.09,.47,0,1-.02,2.18-.06,3.56Zm.68-6.23c.86,0,1.76-.2,2.69-.6,.93-.4,1.7-.94,2.31-1.6,.61-.67,.91-1.37,.91-2.12,0-.45-.15-.93-.44-1.44-.47-.74-1.31-1.12-2.53-1.12-.61,0-1.22,.08-1.82,.25-.61,.17-.96,.31-1.06,.43-.12,.16-.24,.82-.35,1.98-.12,1.17-.21,2.56-.26,4.19,.12,.02,.3,.03,.56,.03Zm6.01,1.16c-.17-.09-.34-.15-.51-.19,.18,.49,.45,.77,.82,.85,.06-.08,.1-.22,.12-.44-.12-.06-.26-.13-.43-.22Z"/>
        <path class="cls-2" d="M47.05,35.45c.14,.38,.24,.75,.29,1.12,.06,.36,.08,.57,.06,.63-1.27-.08-2.61-.12-4-.12-1.8,0-3.41,.06-4.82,.18-.2,0-.41-.18-.65-.53-.24-.35-.42-.72-.56-1.12-.14-.39-.16-.6-.06-.62l1.32-.09c1.57-.04,2.35-.12,2.35-.24l.09-2.26c.2-4.37,.29-7.56,.29-9.58,0-1.53-.06-2.39-.18-2.59,0-.02-.2,0-.59,.03-.47,.04-.86,.06-1.18,.06-.39,0-.65-.03-.76-.09-.22-.22-.44-.56-.68-1.03s-.39-.87-.47-1.2c.31,.02,.8,.03,1.47,.03,1.45,0,2.94-.07,4.48-.21,1.54-.14,2.67-.29,3.39-.47,.2,.14,.39,.45,.57,.93,.19,.48,.34,.98,.46,1.51-.14,.02-.4,.04-.78,.07-.38,.03-.69,.05-.93,.07-1.1,.04-1.8,.09-2.12,.15,.06,.12,.09,.91,.09,2.38,0,.02-.03,2.47-.09,7.35l-.06,4.53c.1,.02,.45,.05,1.06,.09,.8,.04,1.29,.08,1.47,.12,.2,.22,.36,.51,.5,.9Zm-5.26-14.94v-.12l-.18,.12h.18Zm.57,9.4c-.03-.12-.05-.21-.07-.26l-.21-.09s-.04,.03-.07,.04c-.03,.01-.05,.02-.07,.04-.02,0-.02,.01-.01,.03,0,.02,0,.05-.01,.09,0,.1,.01,.2,.04,.29,.03,.1,.05,.2,.07,.29,.1,.02,.17,.03,.22,.03s.1-.02,.16-.06l.09-.12c-.06-.08-.1-.18-.13-.29Zm.54,1.81v-.1c-.2,.02-.34,.04-.44,.07-.1,.03-.2,.1-.29,.22,.06-.02,.18-.03,.35-.04,.18,0,.28-.03,.32-.07,.04-.02,.06-.04,.06-.07Z"/>
        <path class="cls-6" d="M69.2,36.99c-.37,.31-1.36,.47-2.97,.47l-1.85-.03c0-.53-.31-1.94-.94-4.23-.08-.29-.2-.74-.35-1.34-.16-.6-.23-.97-.23-1.13-.06,0-.4,.02-1.03,.06-1.23,.08-3.36,.18-6.38,.29-.27,.78-.54,1.65-.79,2.59-.23,.84-.46,1.55-.66,2.12-.21,.57-.48,1.2-.84,1.91-.74,.02-1.53-.07-2.35-.26-.82-.2-1.31-.37-1.47-.53,.57-.71,1.75-3.13,3.54-7.29,1.79-4.15,3.39-7.98,4.8-11.49,.06-.18,.05-.31-.01-.4-.07-.09-.2-.2-.4-.34-.33-.24-.58-.45-.73-.65,.22-.1,.58-.18,1.09-.24,.51-.06,1.03-.09,1.56-.09,1.23,0,1.89,.15,1.97,.44,.27,.92,1.42,3.91,3.42,8.98,2.01,5.06,3.16,7.85,3.45,8.36,.59,1.06,.98,1.99,1.18,2.79Zm-8.68-13.43c-.5-1.72-.8-2.7-.9-2.94-1.59,3.6-2.49,5.7-2.7,6.29l-.65,1.91c.27,.02,.64,.03,1.09,.03,.27,0,.98-.04,2.12-.12l2.47-.21-.35-1.26c-.22-.74-.57-1.98-1.07-3.7Zm-3.6,5.99h-.32c-.04,.08-.06,.14-.07,.18-.01,.04-.03,.07-.07,.09v.12c.24,0,.39-.03,.47-.09l.53-.09c-.24-.04-.41-.11-.53-.21Zm10.02,4.17c-.06-.06-.13-.14-.21-.25-.08-.11-.14-.18-.18-.22h-.29l-.09,.12s-.02,.01-.01,.03c0,.02,.01,.05,.01,.09,.04,.1,.1,.19,.19,.28s.15,.17,.19,.25c.1-.02,.17-.04,.22-.06,.05-.02,.09-.06,.13-.12,0-.06,0-.1,.03-.12Zm.88,1.35s-.01-.06-.03-.12c-.18,.06-.29,.12-.35,.18s-.13,.17-.21,.32c.06-.04,.16-.09,.29-.15,.14-.06,.22-.12,.26-.18,.02-.02,.03-.04,.03-.06Z"/>
        <path class="cls-1" d="M75.5,18.58c1.56-1.01,3.2-1.51,4.92-1.51s3.32,.5,4.79,1.48c1.47,.99,2.6,2.41,3.38,4.25,.65,1.51,.97,3.1,.97,4.76s-.32,3.15-.97,4.57c-.65,1.42-1.57,2.62-2.78,3.59-1.21,.97-2.63,1.59-4.28,1.87-.45,.08-.94,.12-1.47,.12-1.72,0-3.3-.49-4.72-1.47-1.42-.98-2.53-2.27-3.34-3.86-.8-1.6-1.2-3.28-1.2-5.04,0-1.55,.33-3.02,1-4.41,.9-1.88,2.13-3.33,3.69-4.33Zm-2.91,9.3c.03,.47,.1,.86,.22,1.18,0-.74-.01-1.35-.04-1.82-.03-.47-.1-.83-.22-1.09,0,.69,.01,1.26,.04,1.73Zm10.52,5.67c.68-.78,1.19-1.76,1.53-2.94s.51-2.4,.51-3.67-.18-2.41-.53-3.48c-.35-1.07-.89-1.91-1.6-2.51-.72-.61-1.59-.87-2.63-.79-1.21,.1-2.25,.52-3.11,1.28-.86,.75-1.51,1.71-1.94,2.87-.43,1.16-.65,2.37-.65,3.64s.2,2.39,.6,3.47c.4,1.08,1,1.94,1.79,2.6,.79,.66,1.75,.98,2.86,.98,.18,0,.44-.02,.79-.06,.9-.14,1.69-.6,2.37-1.38Zm-2.95-14.69c-.08,.04-.13,.08-.15,.12h1.41l.12-.12v-.06h-1.21s-.1,.02-.18,.06Zm3.91,14.71c-.1,.03-.18,.05-.24,.07l.38,.03c.26,0,.42-.07,.5-.21h-.44s-.11,.07-.21,.1Z"/>
        <path class="cls-4" d="M92.46,20.97c-.4-.82-.83-1.56-1.28-2.2-.14-.2-.3-.47-.5-.82,.47,0,1.21-.08,2.23-.24,.86-.12,1.41-.18,1.65-.18,.27,0,.43,.05,.47,.15l1.38,4.08c.37,1.02,.67,1.89,.9,2.6,.22,.72,.47,1.48,.72,2.31,.24,.88,.8,2.78,1.7,5.7,.22-.23,.66-1.26,1.34-3.07,.68-1.81,1.34-3.71,1.98-5.7,.65-1.99,1.02-3.29,1.12-3.89,.04-.33,.1-.66,.18-.97,.1-.49,.16-.9,.18-1.23,.24,.02,.69,.03,1.35,.03,.98,.02,1.68,.05,2.12,.09,.43,.04,.66,.14,.68,.29-.2,.69-.95,2.79-2.26,6.3-1.31,3.52-2.62,6.73-3.92,9.65-1.3,2.92-2.21,4.33-2.72,4.23-.69-.65-1.53-2-2.54-4.06-1.01-2.06-2.15-5.18-3.42-9.37-.49-1.65-.94-2.88-1.34-3.7Zm9.86,11.11l-.09-.26c0,.06,.03,.15,.09,.26Zm2.75-10.31c-.03,.12-.04,.22-.04,.29,0,.14,.04,.28,.12,.44,.02-.14,.04-.26,.07-.38,.03-.12,.04-.22,.04-.32,0-.08-.04-.2-.12-.35-.02,.1-.04,.21-.07,.32Zm.48,.59s-.05,.07-.04,.09c0,.02,.05,.04,.13,.06,.02-.04,.05-.07,.09-.1,.04-.03,.05-.06,.03-.09-.02-.03-.06-.05-.12-.07-.02,.04-.05,.08-.09,.12Z"/>
      </g>
      <rect class="cls-5" width="129" height="54"/>
    </g>
  </g>
</svg>